<mxfile host="app.diagrams.net" modified="2024-05-07T00:00:32.047Z" agent="Mozilla/5.0 (X11; Ubuntu; Linux x86_64; rv:124.0) Gecko/20100101 Firefox/124.0" etag="Mtzxl24joyjDDDg4NX5C" version="24.3.1" type="device">
  <diagram id="2zl0Z5G6ghSrFKEEEcXR" name="Page-1">
    <mxGraphModel dx="881" dy="893" grid="1" gridSize="10" guides="1" tooltips="1" connect="1" arrows="1" fold="1" page="1" pageScale="1" pageWidth="850" pageHeight="1100" math="0" shadow="0">
      <root>
        <mxCell id="0" />
        <mxCell id="1" parent="0" />
        <mxCell id="hZMEYx6kupNzN6GzHAF5-1" value="" style="rounded=0;whiteSpace=wrap;html=1;" parent="1" vertex="1">
          <mxGeometry x="100" y="260" width="360" height="360" as="geometry" />
        </mxCell>
        <mxCell id="mi98yjef5SFVJaIdZgq--1" value="bare metal" style="rounded=1;fillColor=#f5f5f5;fontColor=default;strokeColor=#666666;shadow=0;fontFamily=monospace;" parent="1" vertex="1">
          <mxGeometry x="220" y="550" width="230" height="60" as="geometry" />
        </mxCell>
        <mxCell id="mi98yjef5SFVJaIdZgq--2" value="Ubuntu LTS 64-bit server" style="rounded=1;fillColor=#ffe6cc;strokeColor=#d79b00;shadow=0;fontFamily=monospace;" parent="1" vertex="1">
          <mxGeometry x="220" y="410" width="230" height="60" as="geometry" />
        </mxCell>
        <mxCell id="mi98yjef5SFVJaIdZgq--3" value="ext4 for / (root folder)&#xa;ZFS for /data (optional)" style="rounded=1;fillColor=#e1d5e7;strokeColor=#9673a6;shadow=0;fontFamily=monospace;" parent="1" vertex="1">
          <mxGeometry x="220" y="480" width="230" height="60" as="geometry" />
        </mxCell>
        <mxCell id="mi98yjef5SFVJaIdZgq--4" value="Docker" style="rounded=1;fillColor=#fff2cc;strokeColor=#d6b656;glass=0;shadow=0;verticalAlign=middle;fontFamily=monospace;" parent="1" vertex="1">
          <mxGeometry x="220" y="340" width="230" height="60" as="geometry" />
        </mxCell>
        <mxCell id="mi98yjef5SFVJaIdZgq--5" value="Nextcloud" style="rounded=1;fillColor=#dae8fc;strokeColor=#6c8ebf;rotation=0;shadow=0;fontFamily=monospace;" parent="1" vertex="1">
          <mxGeometry x="220" y="270" width="70" height="60" as="geometry" />
        </mxCell>
        <mxCell id="mi98yjef5SFVJaIdZgq--6" value="Jellyfin" style="rounded=1;fillColor=#dae8fc;strokeColor=#6c8ebf;shadow=0;fontFamily=monospace;" parent="1" vertex="1">
          <mxGeometry x="300" y="270" width="70" height="60" as="geometry" />
        </mxCell>
        <mxCell id="mi98yjef5SFVJaIdZgq--7" value="Wallabag" style="rounded=1;fillColor=#dae8fc;strokeColor=#6c8ebf;shadow=0;fontFamily=monospace;" parent="1" vertex="1">
          <mxGeometry x="380" y="270" width="70" height="60" as="geometry" />
        </mxCell>
        <mxCell id="mi98yjef5SFVJaIdZgq--10" value="hardware" style="text;strokeColor=none;align=right;fillColor=none;verticalAlign=middle;rounded=1;shadow=0;fontFamily=Noto Serif;" parent="1" vertex="1">
          <mxGeometry x="140" y="565" width="60" height="30" as="geometry" />
        </mxCell>
        <mxCell id="mi98yjef5SFVJaIdZgq--11" value="OS" style="text;strokeColor=none;align=right;fillColor=none;verticalAlign=middle;rounded=1;shadow=0;fontFamily=Noto Serif;" parent="1" vertex="1">
          <mxGeometry x="140" y="425" width="60" height="30" as="geometry" />
        </mxCell>
        <mxCell id="mi98yjef5SFVJaIdZgq--12" value="filesystem" style="text;strokeColor=none;align=right;fillColor=none;verticalAlign=middle;rounded=1;shadow=0;fontFamily=Noto Serif;" parent="1" vertex="1">
          <mxGeometry x="140" y="495" width="60" height="30" as="geometry" />
        </mxCell>
        <mxCell id="mi98yjef5SFVJaIdZgq--13" value="container&#xa;runtime" style="text;strokeColor=none;align=right;fillColor=none;verticalAlign=middle;rounded=1;shadow=0;fontFamily=Noto Serif;" parent="1" vertex="1">
          <mxGeometry x="140" y="355" width="60" height="30" as="geometry" />
        </mxCell>
        <mxCell id="mi98yjef5SFVJaIdZgq--14" value="services in&#xa;containers" style="text;strokeColor=none;align=center;fillColor=none;verticalAlign=middle;rounded=1;shadow=0;fontFamily=Noto Serif;" parent="1" vertex="1">
          <mxGeometry x="140" y="285" width="60" height="30" as="geometry" />
        </mxCell>
      </root>
    </mxGraphModel>
  </diagram>
</mxfile>
